<svg version="1.1" id="Layer_1" xmlns="http://www.w3.org/2000/svg" xmlns:xlink="http://www.w3.org/1999/xlink" x="0px" y="0px"
	 width="100%" viewBox="0 0 940 788" enable-background="new 0 0 940 788" xml:space="preserve">
<path fill="#FFFFFF" opacity="1.000000" stroke="none" 
	d="
M658.000000,789.000000 
	C438.666718,789.000000 219.833466,789.000000 1.000147,789.000000 
	C1.000098,526.333496 1.000098,263.666962 1.000049,1.000323 
	C314.333099,1.000215 627.666199,1.000215 940.999451,1.000108 
	C940.999634,263.666351 940.999634,526.332703 940.999817,788.999512 
	C846.833313,789.000000 752.666687,789.000000 658.000000,789.000000 
M29.482878,188.624298 
	C29.236698,192.441193 29.063683,196.264450 28.732716,200.073975 
	C26.168484,229.588989 23.563868,259.100494 20.991840,288.614838 
	C19.199823,309.178497 17.457933,329.746521 15.660686,350.309692 
	C13.124596,379.326355 10.559366,408.340515 8.004035,437.355499 
	C6.134998,458.577759 4.330096,479.806122 2.338114,501.016876 
	C1.891549,505.771912 2.323606,509.995300 4.616066,514.413086 
	C29.529055,562.422607 54.242256,610.535767 79.022171,658.614319 
	C79.821442,660.165100 80.751732,661.648376 82.029694,663.875427 
	C86.497192,657.804016 90.512619,652.346985 94.942398,647.393921 
	C99.487816,656.068970 103.899605,664.817566 108.617271,673.397888 
	C113.094521,681.541016 122.136879,683.428345 129.451401,678.239990 
	C132.250778,676.254272 135.269913,674.426941 138.437469,673.138489 
	C150.897339,668.070374 163.384048,663.050842 175.996582,658.379883 
	C191.562439,652.615112 207.197678,647.018677 222.938141,641.753845 
	C229.317245,639.620178 236.213242,639.134460 242.459427,642.154724 
	C244.943375,643.355835 246.915009,646.347900 248.144028,648.980286 
	C248.527603,649.801819 245.968475,652.460571 244.316818,653.685486 
	C238.452209,658.034973 236.628784,666.072205 240.354019,672.363953 
	C243.976166,678.481506 251.912033,680.234680 258.682495,677.220276 
	C275.513885,669.726501 280.625488,648.445007 271.820251,633.014832 
	C263.130798,617.787659 244.407532,609.358154 224.739822,613.568848 
	C212.135574,616.267273 199.861557,620.590271 187.543121,624.510681 
	C180.347763,626.800598 173.356308,629.731262 165.088440,632.815674 
	C166.414673,630.743225 166.944901,629.772827 167.606171,628.901917 
	C187.837448,602.257568 207.892151,575.475647 228.423340,549.064270 
	C235.921265,539.418884 241.258133,529.914917 241.769821,516.913818 
	C242.750900,491.986481 245.807938,467.141724 247.969116,442.259735 
	C250.447266,413.728180 252.862762,385.191193 255.351410,356.660583 
	C258.187225,324.149475 261.051483,291.640808 263.946106,259.134888 
	C265.835449,237.918015 267.981964,216.722198 269.657257,195.488861 
	C270.516937,184.593246 271.389252,173.596939 270.852966,162.715286 
	C269.907227,143.525040 252.665009,124.811852 233.536560,122.123550 
	C217.261719,119.836288 200.835754,118.597321 184.462250,117.046364 
	C167.084579,115.400284 149.695175,113.871101 132.300674,112.412628 
	C122.866997,111.621643 113.414215,110.600250 103.966148,110.558075 
	C92.818230,110.508316 83.272629,115.487686 73.690918,121.625267 
	C54.044991,118.700203 35.937435,130.638214 33.292759,149.166779 
	C31.462214,161.991547 31.019207,175.014359 29.482878,188.624298 
M697.611389,444.292023 
	C699.928833,451.274231 702.254211,458.253815 704.561401,465.239441 
	C706.650330,471.564178 711.384949,474.569031 717.009705,473.115234 
	C722.376770,471.728027 725.195496,466.290497 723.599243,459.932495 
	C722.751282,456.554749 721.216431,453.336182 720.526367,449.937164 
	C720.145996,448.063690 720.122253,445.098358 721.240295,444.131317 
	C724.594910,441.229919 728.351807,438.534576 732.387268,436.736298 
	C739.634521,433.506744 742.216736,435.103638 743.886292,442.817413 
	C747.621948,460.077515 748.417114,477.440643 745.801880,494.944641 
	C744.426147,504.152679 746.814575,508.721710 753.287537,509.742188 
	C759.141174,510.665039 763.494812,506.467957 764.919922,498.080719 
	C768.458130,477.257538 767.637390,456.590912 761.978027,436.215271 
	C756.791626,417.542358 743.998840,411.252991 726.012573,418.759735 
	C720.426636,421.091125 715.345459,424.631836 709.819214,427.739227 
	C697.913513,416.728943 685.189209,418.808716 672.311707,426.990448 
	C672.108337,426.187531 671.986389,425.707062 671.864807,425.226440 
	C669.990479,417.815063 666.519775,414.968689 660.658264,416.035919 
	C655.096497,417.048553 652.321106,421.361328 652.879944,428.506226 
	C653.503296,436.475464 654.147827,444.448181 655.045288,452.389771 
	C656.914307,468.929321 658.766663,485.475189 661.016907,501.965088 
	C661.961853,508.889648 666.648376,512.483704 672.090210,511.612579 
	C677.791199,510.699982 680.935913,506.304352 680.184631,499.371490 
	C678.875854,487.294952 677.895569,475.124512 675.547424,463.236389 
	C673.482483,452.781952 678.691650,446.807953 686.021851,441.523163 
	C691.022339,437.918030 693.251221,438.499054 697.611389,444.292023 
M800.133728,411.863098 
	C801.869385,404.601135 804.000549,397.404022 805.204651,390.054962 
	C806.038818,384.964172 802.729004,380.915436 797.991455,379.464142 
	C793.352173,378.042999 788.666565,379.891022 786.183411,384.522003 
	C784.945618,386.830322 784.118103,389.421143 783.477661,391.977570 
	C776.705078,419.011871 774.000244,446.390625 777.123047,474.175446 
	C778.123291,483.075073 779.186096,492.035248 781.285095,500.710083 
	C782.109741,504.118317 785.361877,508.714386 788.355164,509.486145 
	C796.939697,511.699463 806.101013,514.284729 814.831299,510.467529 
	C823.771667,506.558441 832.688232,502.308746 840.892212,497.074738 
	C850.851990,490.720428 857.051453,481.251617 858.037964,469.148682 
	C859.995239,445.135162 844.418884,425.175079 820.389282,421.037048 
	C813.450195,419.842102 806.349915,419.583618 799.048706,418.868896 
	C799.355835,416.916534 799.686646,414.813049 800.133728,411.863098 
M390.538239,413.169464 
	C389.456787,415.406891 388.034149,417.545990 387.355865,419.899628 
	C385.024689,427.988586 391.601593,435.144257 399.626801,432.752319 
	C402.523193,431.889008 405.274597,428.876129 407.023224,426.156799 
	C411.216064,419.636566 417.658661,417.425171 424.008820,421.862000 
	C427.482666,424.289185 430.026154,428.047852 433.313446,431.551666 
	C424.589935,436.108307 416.981323,439.781250 409.667603,443.969177 
	C396.795532,451.339935 387.313782,461.884247 382.489746,476.010345 
	C376.625519,493.182251 387.544769,509.559753 405.642181,511.267029 
	C414.932434,512.143433 423.840393,510.465881 432.522186,507.134674 
	C434.447083,506.396057 436.685486,506.025696 438.738892,506.151123 
	C446.293854,506.612579 450.326019,503.351776 451.060272,495.806122 
	C451.576355,490.502747 452.203674,485.206726 452.569000,479.892792 
	C453.436462,467.274811 454.586792,454.656525 454.844635,442.022430 
	C455.063507,431.298035 452.144165,421.274811 444.835541,412.939392 
	C428.723236,394.563538 403.569946,393.744781 390.538239,413.169464 
M335.729126,341.063660 
	C330.635559,339.680420 328.522736,335.892029 326.970947,331.168945 
	C325.100708,325.476654 319.356506,322.713013 313.775513,324.151245 
	C309.013458,325.378448 305.993988,330.110901 307.159271,335.996429 
	C307.845337,339.461670 309.434021,342.990479 311.459961,345.904449 
	C318.625610,356.211060 329.146973,361.146698 341.151398,363.485901 
	C353.644409,365.920319 365.699799,365.167358 376.871826,358.506866 
	C388.981750,351.287170 394.235962,335.817139 390.573059,318.723053 
	C387.258087,303.252594 378.838654,294.968750 363.385742,291.978973 
	C359.957306,291.315643 356.501923,290.770538 353.102173,289.984161 
	C346.326233,288.416931 344.688416,284.987366 347.545929,278.650696 
	C352.828491,266.936493 363.633301,262.152191 376.015259,265.915833 
	C379.013916,266.827332 382.112213,267.786011 385.202789,267.935425 
	C390.315765,268.182648 394.984467,264.062469 395.899933,259.184692 
	C396.755188,254.627808 394.575439,251.104568 389.049744,249.042557 
	C371.815979,242.611481 355.254822,243.845062 340.209015,254.806473 
	C329.059448,262.929352 324.335815,274.508209 326.260895,288.093597 
	C327.986481,300.270813 337.378662,305.539825 347.871094,309.192352 
	C352.106079,310.666595 356.478668,311.762512 360.665710,313.353912 
	C368.467865,316.319366 371.325562,320.385040 370.956635,327.394623 
	C370.553314,335.057465 366.671082,340.057220 359.091705,342.165558 
	C351.505188,344.275818 343.937775,343.874573 335.729126,341.063660 
M536.355652,390.623138 
	C537.551025,424.575195 538.719177,458.528229 539.985291,492.477661 
	C540.107849,495.764679 540.340210,499.200806 541.400085,502.263794 
	C542.991089,506.861542 547.034180,508.883636 551.666870,508.698059 
	C556.030334,508.523254 557.971741,504.960358 558.561768,501.240906 
	C559.285217,496.680084 559.536194,491.981628 559.399963,487.360138 
	C559.120544,477.881714 558.132446,468.418396 558.026855,458.942291 
	C557.927612,450.031433 565.256958,441.711823 572.875000,441.827057 
	C581.084473,441.951202 588.344177,446.762726 589.034485,457.328918 
	C589.359924,462.312012 589.848694,467.295197 589.909058,472.282623 
	C590.025879,481.937653 589.674133,491.601624 589.937256,501.250427 
	C590.116333,507.817352 594.195801,511.834198 599.653259,511.736664 
	C604.963196,511.641754 609.869019,507.282532 609.750061,501.311646 
	C609.422119,484.852631 609.665222,468.251831 607.517822,451.992981 
	C604.910706,432.253265 588.411194,420.766510 568.778259,423.057404 
	C564.924622,423.507080 561.185974,424.942780 555.990356,426.286896 
	C555.990356,414.380737 556.074341,403.066315 555.930603,391.754791 
	C555.895142,388.968323 555.524597,386.047302 554.600708,383.438660 
	C552.403564,377.235107 545.112610,375.058594 540.516846,379.707184 
	C538.153076,382.098022 537.653564,386.331940 536.355652,390.623138 
M322.578674,511.735687 
	C330.564819,510.361603 333.431549,506.469177 332.127563,498.587585 
	C331.231537,493.171783 330.075623,487.795654 329.318909,482.362366 
	C329.125458,480.973389 329.535706,478.886963 330.484985,478.072083 
	C332.918457,475.983093 335.810730,474.428650 338.694275,472.546478 
	C341.609222,477.963440 344.076111,483.060364 347.011688,487.871338 
	C350.554840,493.678009 354.148529,499.517303 358.363617,504.832306 
	C362.411774,509.936829 366.928253,510.335144 371.458679,507.085815 
	C376.120544,503.742188 376.881775,499.224457 373.611298,493.544281 
	C367.885468,483.599609 362.210205,473.622559 356.269562,463.806854 
	C354.535522,460.941711 354.942871,459.297852 357.332031,457.138428 
	C361.013397,453.811066 364.708984,450.349548 367.638123,446.383301 
	C370.409363,442.630859 369.677673,438.295898 366.318481,435.020111 
	C363.045593,431.828552 358.985809,430.980896 354.883484,433.450500 
	C352.779266,434.717224 351.025665,436.574677 349.142303,438.198486 
	C342.029358,444.331116 334.928223,450.477417 326.909454,457.407867 
	C325.305847,437.875671 325.902802,420.037445 329.461731,402.283661 
	C330.432587,397.440491 330.961334,392.408691 330.854340,387.481659 
	C330.771210,383.653595 328.455048,379.858063 324.412659,379.695465 
	C321.370483,379.573151 317.336639,380.977417 315.372040,383.164398 
	C313.023682,385.778656 311.793121,389.840088 311.143158,393.465576 
	C306.709900,418.193420 305.668701,443.111084 308.083771,468.120392 
	C309.122925,478.881775 310.406403,489.638519 312.141602,500.305817 
	C313.013763,505.667542 315.475281,510.539246 322.578674,511.735687 
M499.365021,405.093781 
	C514.812805,404.006348 526.316467,395.765045 533.593994,383.028412 
	C541.455200,369.270203 548.103333,354.669647 553.787537,339.863281 
	C558.458984,327.695068 561.295898,314.769348 564.255493,302.019043 
	C565.799927,295.365814 562.781006,291.041412 557.328979,289.490906 
	C550.921265,287.668671 546.246277,291.228943 544.055115,299.490234 
	C541.170898,310.364319 538.225098,321.222046 535.048096,333.045807 
	C533.401611,330.751770 532.408508,329.459076 531.510986,328.103088 
	C524.995667,318.259247 518.557007,308.363953 511.957275,298.577179 
	C510.300995,296.121155 508.413940,293.681122 506.160431,291.799713 
	C502.638763,288.859589 498.517853,288.537079 494.635925,291.216949 
	C490.796570,293.867462 489.369537,297.653656 490.986145,302.129333 
	C491.878052,304.598602 493.117676,307.002747 494.556061,309.203949 
	C501.741211,320.199402 509.075348,331.097382 516.290710,342.073242 
	C519.306396,346.660675 524.499207,351.377411 524.457153,355.996735 
	C524.410583,361.111420 519.678284,366.284515 516.686584,371.251495 
	C509.127716,383.801147 503.795715,385.971527 489.457306,382.721069 
	C483.317932,381.329315 479.752045,382.647888 477.668335,387.080353 
	C475.445160,391.809448 476.817230,396.648621 481.531921,400.237549 
	C486.519928,404.034515 492.293884,405.260498 499.365021,405.093781 
M409.662903,354.842987 
	C424.908386,367.945557 443.973572,368.346252 458.980347,355.029755 
	C472.952423,342.631409 477.932587,326.496368 475.386566,308.178711 
	C473.849335,297.118713 468.985718,288.120789 458.075104,283.215424 
	C435.905365,273.248047 414.282166,281.164612 403.922882,303.167969 
	C396.483795,318.968689 395.634003,341.763489 409.662903,354.842987 
M902.533508,511.103760 
	C907.949646,508.727631 914.019897,507.235809 918.656738,503.806152 
	C931.511841,494.297943 937.218933,480.721344 938.003479,464.983582 
	C938.516113,454.700317 936.555115,444.835602 929.605286,437.023376 
	C917.800415,423.753510 892.512512,422.184937 878.804443,433.599518 
	C864.937683,445.146240 859.792236,460.473114 860.854614,478.063965 
	C862.144226,499.416382 880.513184,514.211670 902.533508,511.103760 
M525.701843,502.158356 
	C525.085876,493.358459 521.465698,490.382080 512.816101,491.322449 
	C509.184814,491.717224 505.517761,491.809265 501.863770,491.963440 
	C494.738953,492.264099 490.016205,488.906158 486.809265,482.614532 
	C480.248230,469.742554 484.831757,448.499207 496.754242,437.792297 
	C501.649902,433.395752 506.624237,431.036224 513.347107,434.839233 
	C518.667419,437.848907 523.516418,435.470978 525.836060,429.872162 
	C528.278992,423.975769 526.234009,418.937347 519.559143,416.370270 
	C506.283600,411.264648 493.988739,413.176117 483.485870,423.049103 
	C469.786438,435.927002 464.257263,452.168976 464.714478,470.687897 
	C464.962006,480.713440 467.337311,490.061920 473.467651,498.246948 
	C484.101959,512.445618 507.801910,513.920105 519.165771,509.793365 
	C521.779419,508.844208 523.444092,505.282074 525.701843,502.158356 
M637.932007,507.189636 
	C638.599243,504.499023 639.804077,501.816589 639.845154,499.116455 
	C640.085754,483.312439 640.051941,467.504242 640.115784,451.697479 
	C640.136475,446.564911 640.663452,441.375214 640.073669,436.314789 
	C639.379456,430.358521 635.375305,427.521851 629.739075,427.884094 
	C624.458252,428.223480 620.162170,432.095673 620.047913,437.447845 
	C619.600403,458.402679 619.308838,479.361877 619.148010,500.320953 
	C619.113525,504.820221 620.633423,508.981445 625.280029,510.865631 
	C629.980774,512.771851 634.056458,511.406494 637.932007,507.189636 
M610.849487,563.135986 
	C611.734558,561.749207 612.435608,560.190857 613.538818,559.007385 
	C617.014954,555.278137 619.516174,555.828857 621.472046,560.655334 
	C622.402893,562.952515 622.893005,565.500244 624.190674,567.549561 
	C624.962891,568.769104 626.916077,569.240784 628.338379,570.048645 
	C629.046814,568.712708 630.129944,567.434753 630.348267,566.023071 
	C630.531738,564.836609 629.608337,563.514465 629.348083,562.217651 
	C628.364441,557.317383 632.476318,556.437805 635.458435,555.223755 
	C638.798828,553.863831 639.932312,556.487366 640.069153,559.219604 
	C640.425049,566.327393 640.442200,573.454773 640.928284,580.551453 
	C641.034546,582.102539 642.531067,583.558350 643.387329,585.058044 
	C644.615051,583.966858 646.670288,583.047607 646.938538,581.756958 
	C648.935913,572.147217 648.688599,562.557007 644.987793,553.345032 
	C643.176880,548.837646 639.540405,547.138550 634.823364,548.594177 
	C631.553955,549.603027 628.534424,551.421570 625.072998,553.031982 
	C620.507935,548.080200 615.191650,549.953491 611.330444,551.943176 
	C608.620911,550.392090 606.882080,549.396729 605.143250,548.401367 
	C604.419495,550.390625 602.949463,552.438171 603.099304,554.359253 
	C603.796875,563.304138 604.762817,572.240784 606.081726,581.113586 
	C606.341003,582.857361 608.668213,585.697693 609.894897,585.622925 
	C613.199890,585.421570 612.893860,582.434143 612.563293,579.828796 
	C611.893860,574.554138 611.330750,569.266052 610.849487,563.135986 
M376.814117,573.823853 
	C377.165985,576.627075 377.146118,579.552979 378.014923,582.185608 
	C378.503418,583.665833 380.459320,584.661926 381.754150,585.876099 
	C382.628265,584.329041 384.287598,582.752747 384.231293,581.240356 
	C384.052521,576.439636 383.541107,571.599548 382.573242,566.895020 
	C381.662476,562.468201 383.958252,559.884583 386.926300,557.634644 
	C389.395752,555.762634 391.660553,556.317932 392.865662,559.363159 
	C393.955719,562.117493 394.650482,565.060486 396.017639,567.658142 
	C396.622620,568.807739 398.604858,570.086792 399.689392,569.879761 
	C400.693420,569.688049 401.786865,567.666016 402.007141,566.314148 
	C402.226959,564.964539 401.328796,563.461243 401.068542,561.998962 
	C400.565887,559.174866 403.836273,555.733093 407.458710,555.046326 
	C411.186737,554.339661 411.760071,557.047241 411.904907,559.502380 
	C412.304138,566.269653 412.230591,573.065979 412.678314,579.828674 
	C412.795959,581.606323 414.127869,583.303589 414.902191,585.037781 
	C416.271973,583.703979 418.700562,582.462463 418.826294,581.020264 
	C419.341766,575.106689 419.847931,569.042786 419.095703,563.196655 
	C416.970154,546.677917 411.453827,544.256470 397.189209,553.279541 
	C392.288391,548.286987 386.900055,549.566833 382.734985,552.203674 
	C380.406372,550.604004 378.742859,549.461304 377.079376,548.318542 
	C376.292633,550.244080 374.766205,552.204224 374.854248,554.088928 
	C375.148499,560.387024 376.020569,566.658264 376.814117,573.823853 
M735.432617,551.378174 
	C733.246887,548.737061 731.497986,545.469849 728.788452,543.579407 
	C722.274536,539.034729 713.987427,541.188660 711.107056,547.913879 
	C710.501892,549.326965 711.469360,551.413635 711.712219,553.189941 
	C713.438965,552.824829 715.253052,552.680786 716.871216,552.041077 
	C719.108948,551.156494 721.388855,548.774414 723.302307,549.097351 
	C725.483337,549.465454 727.281250,552.103088 729.648132,554.092590 
	C725.649170,556.160767 722.794189,557.506836 720.067322,559.075623 
	C714.899414,562.048767 710.712097,565.989197 708.633606,571.751953 
	C706.103882,578.765625 709.939758,585.538391 717.313538,585.732422 
	C722.484314,585.868469 727.726624,584.417114 732.870605,583.353516 
	C733.754333,583.170715 734.874207,581.401917 734.920349,580.324280 
	C735.323486,570.923035 735.506958,561.512268 735.432617,551.378174 
M426.955902,605.189941 
	C427.019043,607.669250 427.405182,610.468079 430.567047,609.739868 
	C431.948914,609.421570 433.156097,606.795776 433.727264,604.991394 
	C434.193146,603.519592 433.503998,601.711975 433.485931,600.051514 
	C433.435791,595.441467 433.468567,590.830566 433.468567,585.975098 
	C434.700897,585.975098 435.848145,586.034607 436.987579,585.965698 
	C446.943298,585.363770 454.152893,576.801819 453.053040,566.913269 
	C452.009918,557.534912 444.114380,551.894348 434.053223,553.317139 
	C433.290161,553.425049 432.404663,553.617859 431.744415,553.352417 
	C425.969452,551.030579 425.044495,551.648865 425.266724,557.849792 
	C425.821655,573.335449 426.375824,588.821045 426.955902,605.189941 
M478.712402,553.406616 
	C476.182281,560.496948 476.005127,567.711304 477.806885,574.958862 
	C479.101959,580.168335 481.345398,584.812378 487.349945,585.818054 
	C491.819702,586.566650 499.935974,581.623596 501.982971,576.928223 
	C502.465881,575.820557 502.333130,573.513672 501.622345,573.033691 
	C500.546844,572.307373 498.637299,572.379761 497.233368,572.725891 
	C496.261292,572.965515 495.653900,574.415649 494.690277,575.013062 
	C492.529144,576.352905 489.439178,579.029053 488.199097,578.374207 
	C486.199524,577.318298 485.251404,574.076416 484.141357,571.629883 
	C483.717896,570.696594 484.072479,569.410217 484.072479,567.963562 
	C487.914215,567.255432 491.711609,566.827393 495.330658,565.782104 
	C497.361603,565.195435 499.998962,564.024719 500.805267,562.361816 
	C503.779968,556.226868 500.463074,546.528503 495.051086,543.996765 
	C489.624298,541.458130 483.892975,544.188660 479.644714,551.345947 
	C479.391968,551.771729 479.199402,552.233398 478.712402,553.406616 
M651.981262,568.278198 
	C653.099670,572.412354 653.767517,576.743835 655.466003,580.624084 
	C657.097534,584.351440 660.870911,587.181763 664.765137,585.545166 
	C669.301575,583.638672 673.199341,580.103943 677.127136,576.966431 
	C677.767578,576.454895 677.647461,573.633057 676.966003,573.139526 
	C675.912354,572.376404 673.959412,572.301758 672.599792,572.685730 
	C671.469482,573.004944 670.760864,574.588928 669.658997,575.286499 
	C667.632935,576.569214 664.806152,579.022705 663.494812,578.419434 
	C661.595337,577.545715 660.594055,574.460571 659.514709,572.174683 
	C658.994812,571.073608 659.171997,569.643494 658.999146,568.044617 
	C662.991455,567.296021 666.769653,566.790649 670.424500,565.820496 
	C672.382202,565.300781 674.863586,564.452576 675.835022,562.936584 
	C679.163757,557.742126 676.069092,547.056213 670.834839,544.218079 
	C665.619995,541.390503 658.580994,543.672913 655.596863,550.542480 
	C653.356445,555.699951 653.098694,561.718750 651.981262,568.278198 
M326.028198,539.467407 
	C322.227936,540.753113 317.592316,541.073792 314.783661,543.505005 
	C306.272095,550.872925 305.268677,571.260315 312.282532,580.115906 
	C317.664734,586.911377 327.333923,588.020874 332.905670,582.358276 
	C334.726562,580.507690 337.094482,578.317932 334.623077,575.529236 
	C332.309387,572.918518 330.275085,574.876465 328.207581,576.461975 
	C324.334900,579.431885 320.428253,578.778015 317.948517,574.968140 
	C313.779572,568.562866 314.052734,556.408325 318.504059,550.249512 
	C321.321747,546.350952 323.958710,546.136536 328.276398,548.553772 
	C329.682648,549.341064 331.959167,548.574036 333.837646,548.517883 
	C333.557281,546.567627 333.926178,544.040710 332.834290,542.811096 
	C331.428314,541.227783 328.851593,540.684021 326.028198,539.467407 
M361.251678,559.636108 
	C363.276154,566.057251 362.377777,571.909302 357.320312,576.572815 
	C353.308960,580.271729 349.546234,578.964661 348.945190,573.594849 
	C348.411743,568.828674 348.587463,563.980774 348.500336,559.167969 
	C348.452057,556.500427 348.081238,553.551453 344.782867,553.988586 
	C343.169922,554.202332 340.644653,556.789673 340.643951,558.303650 
	C340.640930,564.748596 340.700256,571.357483 342.103851,577.599121 
	C343.996155,586.013855 351.613739,588.844543 359.262695,584.869568 
	C367.447418,580.616211 372.499756,566.926514 368.818695,558.316345 
	C368.223206,556.923523 366.121552,555.048706 365.068481,555.248962 
	C363.596130,555.529053 362.454865,557.549683 361.251678,559.636108 
M572.688721,568.740540 
	C571.348877,571.192078 570.420654,574.050171 568.533508,575.961243 
	C567.126160,577.386353 564.394409,578.296814 562.416687,578.060791 
	C561.275024,577.924500 559.791382,575.122742 559.623413,573.406860 
	C559.139099,568.460571 559.507019,563.428101 558.972107,558.491028 
	C558.792175,556.829529 556.906921,555.352722 555.801025,553.791504 
	C554.268188,555.199707 551.402710,556.631592 551.427246,558.012024 
	C551.550659,564.944092 551.612488,572.065186 553.263733,578.731506 
	C555.058960,585.978516 561.854675,588.310364 568.822571,585.359802 
	C577.795776,581.560242 583.624634,567.080322 579.510071,558.108215 
	C578.868530,556.709351 576.589294,556.061584 575.067261,555.066467 
	C574.088928,556.732971 572.500183,558.322327 572.277527,560.084351 
	C571.955505,562.632812 572.622681,565.306335 572.688721,568.740540 
M697.251282,571.105042 
	C697.251282,567.323669 697.251282,563.542236 697.251282,561.297729 
	C700.157532,558.936523 702.094421,557.362854 704.031311,555.789185 
	C702.220764,554.085449 700.410217,552.381714 698.599670,550.677979 
	C697.869568,549.293579 698.678955,547.129578 698.423645,545.099487 
	C698.197144,543.298218 696.788208,541.645569 695.901184,539.927307 
	C694.438599,541.150085 692.239441,542.103760 691.673157,543.653931 
	C690.627808,546.515259 690.540283,549.726440 690.053772,552.791870 
	C689.671570,552.434875 689.289368,552.077820 688.907227,551.720764 
	C686.473328,553.445679 682.068542,555.070557 681.975037,556.914124 
	C681.694397,562.445984 687.493286,558.827332 690.976196,561.603638 
	C690.976196,567.664490 690.761780,574.489990 691.133545,581.283386 
	C691.221619,582.893188 693.276428,584.395386 694.426514,585.947083 
	C695.636841,584.292236 697.621399,582.749695 697.881226,580.957031 
	C698.300415,578.065491 697.583313,575.009216 697.251282,571.105042 
M532.640198,551.934570 
	C531.124390,552.393982 529.425293,552.566101 528.139404,553.386047 
	C526.557556,554.394775 525.320251,555.943909 523.934082,557.259460 
	C525.387939,558.245789 526.744263,559.458496 528.329102,560.140625 
	C529.425598,560.612610 530.837158,560.352478 533.099854,560.471741 
	C533.099854,567.539490 532.954041,574.332458 533.209534,581.110352 
	C533.268250,582.668762 534.495300,584.364929 535.617737,585.606262 
	C536.030334,586.062683 538.314331,585.752075 538.664734,585.156250 
	C539.517822,583.705688 540.170654,581.875122 540.138672,580.212280 
	C540.008301,573.447937 539.589844,566.689270 539.347168,561.433899 
	C542.270752,558.908691 544.242798,557.205444 546.214844,555.502136 
	C544.304443,553.898804 542.394104,552.295410 539.890381,550.194092 
	C540.087402,549.132751 540.979492,546.959534 540.719482,544.934204 
	C540.492004,543.162170 538.969299,541.556335 538.018799,539.877075 
	C536.647644,540.993164 534.596130,541.852966 534.057556,543.282715 
	C533.148254,545.696533 533.197144,548.471313 532.640198,551.934570 
M466.157227,569.080017 
	C466.110687,564.931580 466.020325,560.783081 466.028442,556.634705 
	C466.039124,551.167664 466.470001,545.669983 465.982452,540.251770 
	C465.827118,538.525330 463.320343,537.010437 461.889526,535.398743 
	C460.776245,536.984924 458.710114,538.565735 458.700989,540.158203 
	C458.630798,552.425476 458.671967,564.709778 459.297150,576.957214 
	C459.570587,582.313110 464.422211,586.238098 468.995209,585.784851 
	C470.367065,585.648926 472.148438,584.548096 472.750122,583.378845 
	C473.216400,582.472778 472.318970,579.692200 471.717377,579.591064 
	C465.789734,578.594604 466.781860,573.884460 466.157227,569.080017 
M641.691711,411.935272 
	C644.118408,405.482391 642.542908,400.323486 637.440918,398.016205 
	C632.600281,395.827087 627.371582,397.596375 624.666382,402.338928 
	C621.981750,407.045624 623.117798,412.680420 627.335388,415.577118 
	C631.754333,418.612152 637.000854,417.476318 641.691711,411.935272 
z"/>
<path fill="#2A223D" opacity="1.000000" stroke="none" 
	d="
M74.503181,122.024948 
	C83.272629,115.487686 92.818230,110.508316 103.966148,110.558075 
	C113.414215,110.600250 122.866997,111.621643 132.300674,112.412628 
	C149.695175,113.871101 167.084579,115.400284 184.462250,117.046364 
	C200.835754,118.597321 217.261719,119.836288 233.536560,122.123550 
	C252.665009,124.811852 269.907227,143.525040 270.852966,162.715286 
	C271.389252,173.596939 270.516937,184.593246 269.657257,195.488861 
	C267.981964,216.722198 265.835449,237.918015 263.946106,259.134888 
	C261.051483,291.640808 258.187225,324.149475 255.351410,356.660583 
	C252.862762,385.191193 250.447266,413.728180 247.969116,442.259735 
	C245.807938,467.141724 242.750900,491.986481 241.769821,516.913818 
	C241.258133,529.914917 235.921265,539.418884 228.423340,549.064270 
	C207.892151,575.475647 187.837448,602.257568 167.606171,628.901917 
	C166.944901,629.772827 166.414673,630.743225 165.088440,632.815674 
	C173.356308,629.731262 180.347763,626.800598 187.543121,624.510681 
	C199.861557,620.590271 212.135574,616.267273 224.739822,613.568848 
	C244.407532,609.358154 263.130798,617.787659 271.820251,633.014832 
	C280.625488,648.445007 275.513885,669.726501 258.682495,677.220276 
	C251.912033,680.234680 243.976166,678.481506 240.354019,672.363953 
	C236.628784,666.072205 238.452209,658.034973 244.316818,653.685486 
	C245.968475,652.460571 248.527603,649.801819 248.144028,648.980286 
	C246.915009,646.347900 244.943375,643.355835 242.459427,642.154724 
	C236.213242,639.134460 229.317245,639.620178 222.938141,641.753845 
	C207.197678,647.018677 191.562439,652.615112 175.996582,658.379883 
	C163.384048,663.050842 150.897339,668.070374 138.437469,673.138489 
	C135.269913,674.426941 132.250778,676.254272 129.451401,678.239990 
	C122.136879,683.428345 113.094521,681.541016 108.617271,673.397888 
	C103.899605,664.817566 99.487816,656.068970 94.655449,646.768555 
	C72.850182,604.302856 51.266361,562.495850 29.933271,520.561218 
	C28.155254,517.066162 27.093878,512.642761 27.363802,508.766510 
	C28.576996,491.344879 30.448410,473.970093 31.975559,456.569031 
	C34.143299,431.868896 36.194508,407.158600 38.337215,382.456268 
	C40.882458,353.113281 43.464718,323.773499 46.044689,294.433533 
	C47.895821,273.382111 49.823269,252.337265 51.614021,231.280731 
	C52.783810,217.525742 53.769905,203.755096 54.910835,189.561218 
	C55.689373,180.716324 56.629765,172.313416 57.051128,163.884537 
	C57.855679,147.790405 62.039555,133.209213 74.503181,122.024948 
M113.792679,623.005737 
	C116.862961,629.043701 119.933235,635.081604 123.248444,641.601257 
	C132.510422,629.392334 141.384140,617.695190 150.814499,605.264343 
	C142.409088,604.649963 135.022995,604.110107 126.685532,603.242737 
	C118.913086,602.577637 111.140640,601.912537 102.374290,601.162415 
	C106.317009,608.642944 109.924057,615.486572 113.792679,623.005737 
M148.758163,577.391418 
	C154.715012,577.930847 160.687759,578.339966 166.622101,579.063843 
	C169.649216,579.433167 171.427155,578.367004 173.214096,575.952576 
	C181.220154,565.135193 189.451096,554.484253 197.580750,543.758057 
	C198.404617,542.671021 199.093613,541.481812 200.207825,539.789185 
	C192.029068,539.208496 184.583069,538.679749 176.276077,537.967407 
	C171.964722,537.604614 167.658096,537.166382 163.340973,536.895813 
	C156.106689,536.442383 150.840591,533.398560 147.577499,526.587219 
	C143.885040,518.879700 139.601883,511.455078 135.251389,503.299713 
	C129.370346,510.872162 123.891365,517.743225 118.621140,524.770813 
	C114.393318,530.408447 109.006828,532.306824 102.052422,531.541321 
	C89.893654,530.202820 77.681389,529.350281 64.815674,528.235535 
	C72.294456,542.721497 79.419189,556.606079 86.690201,570.413696 
	C87.170128,571.325073 88.727531,572.083862 89.847687,572.181641 
	C109.234772,573.874329 128.631882,575.452271 148.758163,577.391418 
M216.976288,194.021179 
	C225.037781,194.762527 233.099258,195.503876 241.483734,196.274933 
	C242.321396,186.680664 243.652390,177.769943 243.729675,168.848358 
	C243.814438,159.062439 236.716034,150.718506 227.768661,149.150406 
	C223.213196,148.352020 218.510269,148.394943 213.077942,147.845184 
	C207.798782,147.254517 202.529190,146.554901 197.238892,146.091217 
	C167.630859,143.496170 138.019150,140.942856 108.405800,138.408859 
	C98.054733,137.523117 88.510284,144.515900 86.319489,154.660660 
	C85.726753,157.405396 85.542488,160.249557 85.315346,163.059753 
	C84.799438,169.442596 84.373360,175.832703 83.893509,182.458099 
	C97.632355,183.675659 110.689606,184.830551 123.746414,185.990463 
	C141.464401,187.564438 159.178238,189.186478 176.901062,190.703842 
	C189.982498,191.823822 203.075455,192.809357 216.976288,194.021179 
M213.126343,221.631271 
	C203.510880,220.752457 193.897079,219.854858 184.279617,218.998459 
	C159.235901,216.768433 134.191956,214.540573 109.145157,212.345596 
	C99.921844,211.537292 90.690224,210.823578 81.150391,210.041138 
	C72.728142,306.817444 64.348999,403.098511 55.946438,499.648651 
	C70.134193,500.819824 83.711357,502.050415 97.311455,502.924103 
	C99.011375,503.033325 101.379807,501.693207 102.509232,500.281281 
	C110.208466,490.656403 117.619728,480.801941 125.200256,471.081085 
	C133.330933,460.654785 144.583969,461.599091 150.755997,473.230957 
	C156.605759,484.255432 162.277084,495.375366 168.220734,506.348297 
	C169.029572,507.841553 170.856384,509.541107 172.396362,509.743896 
	C177.825806,510.458771 183.335602,510.563507 189.667282,511.125671 
	C197.726944,511.842499 205.786621,512.559326 214.062927,513.295349 
	C222.488922,416.455627 230.854416,320.311432 239.265503,223.643219 
	C230.431808,223.046814 222.158279,222.488235 213.126343,221.631271 
z"/>
<path fill="#F8A930" opacity="1.000000" stroke="none" 
	d="
M54.838287,189.991470 
	C53.769905,203.755096 52.783810,217.525742 51.614021,231.280731 
	C49.823269,252.337265 47.895821,273.382111 46.044689,294.433533 
	C43.464718,323.773499 40.882458,353.113281 38.337215,382.456268 
	C36.194508,407.158600 34.143299,431.868896 31.975559,456.569031 
	C30.448410,473.970093 28.576996,491.344879 27.363802,508.766510 
	C27.093878,512.642761 28.155254,517.066162 29.933271,520.561218 
	C51.266361,562.495850 72.850182,604.302856 94.448273,646.516602 
	C90.512619,652.346985 86.497192,657.804016 82.029694,663.875427 
	C80.751732,661.648376 79.821442,660.165100 79.022171,658.614319 
	C54.242256,610.535767 29.529055,562.422607 4.616066,514.413086 
	C2.323606,509.995300 1.891549,505.771912 2.338114,501.016876 
	C4.330096,479.806122 6.134998,458.577759 8.004035,437.355499 
	C10.559366,408.340515 13.124596,379.326355 15.660686,350.309692 
	C17.457933,329.746521 19.199823,309.178497 20.991840,288.614838 
	C23.563868,259.100494 26.168484,229.588989 28.732716,200.073975 
	C29.063683,196.264450 29.236698,192.441193 30.171555,188.290710 
	C38.852913,188.635223 46.845600,189.313354 54.838287,189.991470 
z"/>
<path fill="#2B243F" opacity="1.000000" stroke="none" 
	d="
M697.401123,443.965424 
	C693.251221,438.499054 691.022339,437.918030 686.021851,441.523163 
	C678.691650,446.807953 673.482483,452.781952 675.547424,463.236389 
	C677.895569,475.124512 678.875854,487.294952 680.184631,499.371490 
	C680.935913,506.304352 677.791199,510.699982 672.090210,511.612579 
	C666.648376,512.483704 661.961853,508.889648 661.016907,501.965088 
	C658.766663,485.475189 656.914307,468.929321 655.045288,452.389771 
	C654.147827,444.448181 653.503296,436.475464 652.879944,428.506226 
	C652.321106,421.361328 655.096497,417.048553 660.658264,416.035919 
	C666.519775,414.968689 669.990479,417.815063 671.864807,425.226440 
	C671.986389,425.707062 672.108337,426.187531 672.311707,426.990448 
	C685.189209,418.808716 697.913513,416.728943 709.819214,427.739227 
	C715.345459,424.631836 720.426636,421.091125 726.012573,418.759735 
	C743.998840,411.252991 756.791626,417.542358 761.978027,436.215271 
	C767.637390,456.590912 768.458130,477.257538 764.919922,498.080719 
	C763.494812,506.467957 759.141174,510.665039 753.287537,509.742188 
	C746.814575,508.721710 744.426147,504.152679 745.801880,494.944641 
	C748.417114,477.440643 747.621948,460.077515 743.886292,442.817413 
	C742.216736,435.103638 739.634521,433.506744 732.387268,436.736298 
	C728.351807,438.534576 724.594910,441.229919 721.240295,444.131317 
	C720.122253,445.098358 720.145996,448.063690 720.526367,449.937164 
	C721.216431,453.336182 722.751282,456.554749 723.599243,459.932495 
	C725.195496,466.290497 722.376770,471.728027 717.009705,473.115234 
	C711.384949,474.569031 706.650330,471.564178 704.561401,465.239441 
	C702.254211,458.253815 699.928833,451.274231 697.401123,443.965424 
z"/>
<path fill="#2A233E" opacity="1.000000" stroke="none" 
	d="
M800.075623,412.286346 
	C799.686646,414.813049 799.355835,416.916534 799.048706,418.868896 
	C806.349915,419.583618 813.450195,419.842102 820.389282,421.037048 
	C844.418884,425.175079 859.995239,445.135162 858.037964,469.148682 
	C857.051453,481.251617 850.851990,490.720428 840.892212,497.074738 
	C832.688232,502.308746 823.771667,506.558441 814.831299,510.467529 
	C806.101013,514.284729 796.939697,511.699463 788.355164,509.486145 
	C785.361877,508.714386 782.109741,504.118317 781.285095,500.710083 
	C779.186096,492.035248 778.123291,483.075073 777.123047,474.175446 
	C774.000244,446.390625 776.705078,419.011871 783.477661,391.977570 
	C784.118103,389.421143 784.945618,386.830322 786.183411,384.522003 
	C788.666565,379.891022 793.352173,378.042999 797.991455,379.464142 
	C802.729004,380.915436 806.038818,384.964172 805.204651,390.054962 
	C804.000549,397.404022 801.869385,404.601135 800.075623,412.286346 
M837.962769,463.651794 
	C837.322266,454.733093 832.621582,448.412415 825.040527,444.202545 
	C817.190125,439.843048 808.606445,439.056427 799.882690,440.316223 
	C798.595459,440.502167 796.575562,442.767914 796.629333,443.995422 
	C797.261597,458.426361 798.124817,472.850037 799.170044,487.258026 
	C799.437805,490.949249 802.305969,492.654358 805.589783,491.336182 
	C813.547852,488.141602 821.632690,485.011688 829.028992,480.749512 
	C834.791870,477.428589 838.286926,471.738037 837.962769,463.651794 
z"/>
<path fill="#2A233E" opacity="1.000000" stroke="none" 
	d="
M390.745117,412.866394 
	C403.569946,393.744781 428.723236,394.563538 444.835541,412.939392 
	C452.144165,421.274811 455.063507,431.298035 454.844635,442.022430 
	C454.586792,454.656525 453.436462,467.274811 452.569000,479.892792 
	C452.203674,485.206726 451.576355,490.502747 451.060272,495.806122 
	C450.326019,503.351776 446.293854,506.612579 438.738892,506.151123 
	C436.685486,506.025696 434.447083,506.396057 432.522186,507.134674 
	C423.840393,510.465881 414.932434,512.143433 405.642181,511.267029 
	C387.544769,509.559753 376.625519,493.182251 382.489746,476.010345 
	C387.313782,461.884247 396.795532,451.339935 409.667603,443.969177 
	C416.981323,439.781250 424.589935,436.108307 433.313446,431.551666 
	C430.026154,428.047852 427.482666,424.289185 424.008820,421.862000 
	C417.658661,417.425171 411.216064,419.636566 407.023224,426.156799 
	C405.274597,428.876129 402.523193,431.889008 399.626801,432.752319 
	C391.601593,435.144257 385.024689,427.988586 387.355865,419.899628 
	C388.034149,417.545990 389.456787,415.406891 390.745117,412.866394 
M433.918579,458.694000 
	C433.918579,457.482971 433.918579,456.271973 433.918579,454.536377 
	C421.898346,460.282654 410.990448,466.255829 404.712128,477.751801 
	C403.092407,480.717621 401.350922,485.900574 402.730530,487.655823 
	C404.547333,489.967224 409.463654,490.873657 412.917206,490.619080 
	C417.766663,490.261597 422.436401,487.912598 427.297882,487.120026 
	C430.732697,486.560059 431.564362,484.860962 431.803345,481.879517 
	C432.399689,474.438751 433.175751,467.012390 433.918579,458.694000 
z"/>
<path fill="#2B243E" opacity="1.000000" stroke="none" 
	d="
M336.111877,341.174622 
	C343.937775,343.874573 351.505188,344.275818 359.091705,342.165558 
	C366.671082,340.057220 370.553314,335.057465 370.956635,327.394623 
	C371.325562,320.385040 368.467865,316.319366 360.665710,313.353912 
	C356.478668,311.762512 352.106079,310.666595 347.871094,309.192352 
	C337.378662,305.539825 327.986481,300.270813 326.260895,288.093597 
	C324.335815,274.508209 329.059448,262.929352 340.209015,254.806473 
	C355.254822,243.845062 371.815979,242.611481 389.049744,249.042557 
	C394.575439,251.104568 396.755188,254.627808 395.899933,259.184692 
	C394.984467,264.062469 390.315765,268.182648 385.202789,267.935425 
	C382.112213,267.786011 379.013916,266.827332 376.015259,265.915833 
	C363.633301,262.152191 352.828491,266.936493 347.545929,278.650696 
	C344.688416,284.987366 346.326233,288.416931 353.102173,289.984161 
	C356.501923,290.770538 359.957306,291.315643 363.385742,291.978973 
	C378.838654,294.968750 387.258087,303.252594 390.573059,318.723053 
	C394.235962,335.817139 388.981750,351.287170 376.871826,358.506866 
	C365.699799,365.167358 353.644409,365.920319 341.151398,363.485901 
	C329.146973,361.146698 318.625610,356.211060 311.459961,345.904449 
	C309.434021,342.990479 307.845337,339.461670 307.159271,335.996429 
	C305.993988,330.110901 309.013458,325.378448 313.775513,324.151245 
	C319.356506,322.713013 325.100708,325.476654 326.970947,331.168945 
	C328.522736,335.892029 330.635559,339.680420 336.111877,341.174622 
z"/>
<path fill="#2B243F" opacity="1.000000" stroke="none" 
	d="
M536.333679,390.178101 
	C537.653564,386.331940 538.153076,382.098022 540.516846,379.707184 
	C545.112610,375.058594 552.403564,377.235107 554.600708,383.438660 
	C555.524597,386.047302 555.895142,388.968323 555.930603,391.754791 
	C556.074341,403.066315 555.990356,414.380737 555.990356,426.286896 
	C561.185974,424.942780 564.924622,423.507080 568.778259,423.057404 
	C588.411194,420.766510 604.910706,432.253265 607.517822,451.992981 
	C609.665222,468.251831 609.422119,484.852631 609.750061,501.311646 
	C609.869019,507.282532 604.963196,511.641754 599.653259,511.736664 
	C594.195801,511.834198 590.116333,507.817352 589.937256,501.250427 
	C589.674133,491.601624 590.025879,481.937653 589.909058,472.282623 
	C589.848694,467.295197 589.359924,462.312012 589.034485,457.328918 
	C588.344177,446.762726 581.084473,441.951202 572.875000,441.827057 
	C565.256958,441.711823 557.927612,450.031433 558.026855,458.942291 
	C558.132446,468.418396 559.120544,477.881714 559.399963,487.360138 
	C559.536194,491.981628 559.285217,496.680084 558.561768,501.240906 
	C557.971741,504.960358 556.030334,508.523254 551.666870,508.698059 
	C547.034180,508.883636 542.991089,506.861542 541.400085,502.263794 
	C540.340210,499.200806 540.107849,495.764679 539.985291,492.477661 
	C538.719177,458.528229 537.551025,424.575195 536.333679,390.178101 
z"/>
<path fill="#2B243E" opacity="1.000000" stroke="none" 
	d="
M322.196106,511.699707 
	C315.475281,510.539246 313.013763,505.667542 312.141602,500.305817 
	C310.406403,489.638519 309.122925,478.881775 308.083771,468.120392 
	C305.668701,443.111084 306.709900,418.193420 311.143158,393.465576 
	C311.793121,389.840088 313.023682,385.778656 315.372040,383.164398 
	C317.336639,380.977417 321.370483,379.573151 324.412659,379.695465 
	C328.455048,379.858063 330.771210,383.653595 330.854340,387.481659 
	C330.961334,392.408691 330.432587,397.440491 329.461731,402.283661 
	C325.902802,420.037445 325.305847,437.875671 326.909454,457.407867 
	C334.928223,450.477417 342.029358,444.331116 349.142303,438.198486 
	C351.025665,436.574677 352.779266,434.717224 354.883484,433.450500 
	C358.985809,430.980896 363.045593,431.828552 366.318481,435.020111 
	C369.677673,438.295898 370.409363,442.630859 367.638123,446.383301 
	C364.708984,450.349548 361.013397,453.811066 357.332031,457.138428 
	C354.942871,459.297852 354.535522,460.941711 356.269562,463.806854 
	C362.210205,473.622559 367.885468,483.599609 373.611298,493.544281 
	C376.881775,499.224457 376.120544,503.742188 371.458679,507.085815 
	C366.928253,510.335144 362.411774,509.936829 358.363617,504.832306 
	C354.148529,499.517303 350.554840,493.678009 347.011688,487.871338 
	C344.076111,483.060364 341.609222,477.963440 338.694275,472.546478 
	C335.810730,474.428650 332.918457,475.983093 330.484985,478.072083 
	C329.535706,478.886963 329.125458,480.973389 329.318909,482.362366 
	C330.075623,487.795654 331.231537,493.171783 332.127563,498.587585 
	C333.431549,506.469177 330.564819,510.361603 322.196106,511.699707 
z"/>
<path fill="#2B243E" opacity="1.000000" stroke="none" 
	d="
M498.902039,405.115143 
	C492.293884,405.260498 486.519928,404.034515 481.531921,400.237549 
	C476.817230,396.648621 475.445160,391.809448 477.668335,387.080353 
	C479.752045,382.647888 483.317932,381.329315 489.457306,382.721069 
	C503.795715,385.971527 509.127716,383.801147 516.686584,371.251495 
	C519.678284,366.284515 524.410583,361.111420 524.457153,355.996735 
	C524.499207,351.377411 519.306396,346.660675 516.290710,342.073242 
	C509.075348,331.097382 501.741211,320.199402 494.556061,309.203949 
	C493.117676,307.002747 491.878052,304.598602 490.986145,302.129333 
	C489.369537,297.653656 490.796570,293.867462 494.635925,291.216949 
	C498.517853,288.537079 502.638763,288.859589 506.160431,291.799713 
	C508.413940,293.681122 510.300995,296.121155 511.957275,298.577179 
	C518.557007,308.363953 524.995667,318.259247 531.510986,328.103088 
	C532.408508,329.459076 533.401611,330.751770 535.048096,333.045807 
	C538.225098,321.222046 541.170898,310.364319 544.055115,299.490234 
	C546.246277,291.228943 550.921265,287.668671 557.328979,289.490906 
	C562.781006,291.041412 565.799927,295.365814 564.255493,302.019043 
	C561.295898,314.769348 558.458984,327.695068 553.787537,339.863281 
	C548.103333,354.669647 541.455200,369.270203 533.593994,383.028412 
	C526.316467,395.765045 514.812805,404.006348 498.902039,405.115143 
z"/>
<path fill="#2A233E" opacity="1.000000" stroke="none" 
	d="
M409.403198,354.601318 
	C395.634003,341.763489 396.483795,318.968689 403.922882,303.167969 
	C414.282166,281.164612 435.905365,273.248047 458.075104,283.215424 
	C468.985718,288.120789 473.849335,297.118713 475.386566,308.178711 
	C477.932587,326.496368 472.952423,342.631409 458.980347,355.029755 
	C443.973572,368.346252 424.908386,367.945557 409.403198,354.601318 
M426.529816,306.077271 
	C421.396088,313.013428 418.960266,320.738617 419.767303,329.391388 
	C420.348206,335.619629 422.928986,340.599030 429.046692,342.956482 
	C435.516602,345.449677 441.118042,343.478149 445.923950,338.909271 
	C451.186035,333.906677 453.128113,327.301178 455.193146,320.546051 
	C457.206024,313.961426 452.804047,309.207916 451.800293,303.541260 
	C451.682037,302.873627 450.340057,302.309967 449.468933,301.906128 
	C441.396271,298.164062 433.459015,299.460907 426.529816,306.077271 
z"/>
<path fill="#2A233E" opacity="1.000000" stroke="none" 
	d="
M902.110840,511.165649 
	C880.513184,514.211670 862.144226,499.416382 860.854614,478.063965 
	C859.792236,460.473114 864.937683,445.146240 878.804443,433.599518 
	C892.512512,422.184937 917.800415,423.753510 929.605286,437.023376 
	C936.555115,444.835602 938.516113,454.700317 938.003479,464.983582 
	C937.218933,480.721344 931.511841,494.297943 918.656738,503.806152 
	C914.019897,507.235809 907.949646,508.727631 902.110840,511.165649 
M912.250732,449.146851 
	C900.725098,445.081482 893.055908,446.528015 887.682739,454.226685 
	C883.195435,460.656097 881.054932,467.890045 881.709656,475.819366 
	C882.254150,482.414917 884.791992,487.707092 891.439392,490.077240 
	C898.224426,492.496521 903.808472,490.091858 908.568359,485.280457 
	C917.790833,475.958313 919.491760,461.645325 912.250732,449.146851 
z"/>
<path fill="#2B243F" opacity="1.000000" stroke="none" 
	d="
M525.623657,502.540405 
	C523.444092,505.282074 521.779419,508.844208 519.165771,509.793365 
	C507.801910,513.920105 484.101959,512.445618 473.467651,498.246948 
	C467.337311,490.061920 464.962006,480.713440 464.714478,470.687897 
	C464.257263,452.168976 469.786438,435.927002 483.485870,423.049103 
	C493.988739,413.176117 506.283600,411.264648 519.559143,416.370270 
	C526.234009,418.937347 528.278992,423.975769 525.836060,429.872162 
	C523.516418,435.470978 518.667419,437.848907 513.347107,434.839233 
	C506.624237,431.036224 501.649902,433.395752 496.754242,437.792297 
	C484.831757,448.499207 480.248230,469.742554 486.809265,482.614532 
	C490.016205,488.906158 494.738953,492.264099 501.863770,491.963440 
	C505.517761,491.809265 509.184814,491.717224 512.816101,491.322449 
	C521.465698,490.382080 525.085876,493.358459 525.623657,502.540405 
z"/>
<path fill="#EF3967" opacity="1.000000" stroke="none" 
	d="
M54.910831,189.561218 
	C46.845600,189.313354 38.852913,188.635223 30.408215,187.952896 
	C31.019207,175.014359 31.462214,161.991547 33.292759,149.166779 
	C35.937435,130.638214 54.044991,118.700203 74.097046,121.825104 
	C62.039555,133.209213 57.855679,147.790405 57.051128,163.884537 
	C56.629765,172.313416 55.689373,180.716324 54.910831,189.561218 
z"/>
<path fill="#2A233E" opacity="1.000000" stroke="none" 
	d="
M637.705627,507.501099 
	C634.056458,511.406494 629.980774,512.771851 625.280029,510.865631 
	C620.633423,508.981445 619.113525,504.820221 619.148010,500.320953 
	C619.308838,479.361877 619.600403,458.402679 620.047913,437.447845 
	C620.162170,432.095673 624.458252,428.223480 629.739075,427.884094 
	C635.375305,427.521851 639.379456,430.358521 640.073669,436.314789 
	C640.663452,441.375214 640.136475,446.564911 640.115784,451.697479 
	C640.051941,467.504242 640.085754,483.312439 639.845154,499.116455 
	C639.804077,501.816589 638.599243,504.499023 637.705627,507.501099 
z"/>
<path fill="#F13F6C" opacity="1.000000" stroke="none" 
	d="
M610.786621,563.559692 
	C611.330750,569.266052 611.893860,574.554138 612.563293,579.828796 
	C612.893860,582.434143 613.199890,585.421570 609.894897,585.622925 
	C608.668213,585.697693 606.341003,582.857361 606.081726,581.113586 
	C604.762817,572.240784 603.796875,563.304138 603.099304,554.359253 
	C602.949463,552.438171 604.419495,550.390625 605.143250,548.401367 
	C606.882080,549.396729 608.620911,550.392090 611.330444,551.943176 
	C615.191650,549.953491 620.507935,548.080200 625.072998,553.031982 
	C628.534424,551.421570 631.553955,549.603027 634.823364,548.594177 
	C639.540405,547.138550 643.176880,548.837646 644.987793,553.345032 
	C648.688599,562.557007 648.935913,572.147217 646.938538,581.756958 
	C646.670288,583.047607 644.615051,583.966858 643.387329,585.058044 
	C642.531067,583.558350 641.034546,582.102539 640.928284,580.551453 
	C640.442200,573.454773 640.425049,566.327393 640.069153,559.219604 
	C639.932312,556.487366 638.798828,553.863831 635.458435,555.223755 
	C632.476318,556.437805 628.364441,557.317383 629.348083,562.217651 
	C629.608337,563.514465 630.531738,564.836609 630.348267,566.023071 
	C630.129944,567.434753 629.046814,568.712708 628.338379,570.048645 
	C626.916077,569.240784 624.962891,568.769104 624.190674,567.549561 
	C622.893005,565.500244 622.402893,562.952515 621.472046,560.655334 
	C619.516174,555.828857 617.014954,555.278137 613.538818,559.007385 
	C612.435608,560.190857 611.734558,561.749207 610.786621,563.559692 
z"/>
<path fill="#F13F6C" opacity="1.000000" stroke="none" 
	d="
M376.742676,573.381836 
	C376.020569,566.658264 375.148499,560.387024 374.854248,554.088928 
	C374.766205,552.204224 376.292633,550.244080 377.079376,548.318542 
	C378.742859,549.461304 380.406372,550.604004 382.734985,552.203674 
	C386.900055,549.566833 392.288391,548.286987 397.189209,553.279541 
	C411.453827,544.256470 416.970154,546.677917 419.095703,563.196655 
	C419.847931,569.042786 419.341766,575.106689 418.826294,581.020264 
	C418.700562,582.462463 416.271973,583.703979 414.902161,585.037781 
	C414.127869,583.303589 412.795959,581.606323 412.678314,579.828674 
	C412.230591,573.065979 412.304138,566.269653 411.904907,559.502380 
	C411.760071,557.047241 411.186737,554.339661 407.458710,555.046326 
	C403.836273,555.733093 400.565887,559.174866 401.068542,561.998962 
	C401.328796,563.461243 402.226959,564.964539 402.007141,566.314148 
	C401.786865,567.666016 400.693420,569.688049 399.689392,569.879761 
	C398.604858,570.086792 396.622620,568.807739 396.017639,567.658142 
	C394.650482,565.060486 393.955719,562.117493 392.865662,559.363159 
	C391.660553,556.317932 389.395752,555.762634 386.926300,557.634644 
	C383.958252,559.884583 381.662476,562.468201 382.573242,566.895020 
	C383.541107,571.599548 384.052521,576.439636 384.231293,581.240356 
	C384.287598,582.752747 382.628265,584.329041 381.754150,585.876099 
	C380.459320,584.661926 378.503418,583.665833 378.014923,582.185608 
	C377.146118,579.552979 377.165985,576.627075 376.742676,573.381836 
z"/>
<path fill="#F13F6C" opacity="1.000000" stroke="none" 
	d="
M735.594116,551.741272 
	C735.506958,561.512268 735.323486,570.923035 734.920349,580.324280 
	C734.874207,581.401917 733.754333,583.170715 732.870605,583.353516 
	C727.726624,584.417114 722.484314,585.868469 717.313538,585.732422 
	C709.939758,585.538391 706.103882,578.765625 708.633606,571.751953 
	C710.712097,565.989197 714.899414,562.048767 720.067322,559.075623 
	C722.794189,557.506836 725.649170,556.160767 729.648132,554.092590 
	C727.281250,552.103088 725.483337,549.465454 723.302307,549.097351 
	C721.388855,548.774414 719.108948,551.156494 716.871216,552.041077 
	C715.253052,552.680786 713.438965,552.824829 711.712219,553.189941 
	C711.469360,551.413635 710.501892,549.326965 711.107056,547.913879 
	C713.987427,541.188660 722.274536,539.034729 728.788452,543.579407 
	C731.497986,545.469849 733.246887,548.737061 735.594116,551.741272 
M721.132751,578.714783 
	C729.169678,576.525696 730.726624,573.267578 728.229309,561.780090 
	C724.057861,565.383667 719.913574,568.151123 716.849121,571.820435 
	C713.165344,576.231384 714.438354,578.292664 721.132751,578.714783 
z"/>
<path fill="#F03E6B" opacity="1.000000" stroke="none" 
	d="
M426.943115,604.748291 
	C426.375824,588.821045 425.821655,573.335449 425.266724,557.849792 
	C425.044495,551.648865 425.969452,551.030579 431.744415,553.352417 
	C432.404663,553.617859 433.290161,553.425049 434.053223,553.317139 
	C444.114380,551.894348 452.009918,557.534912 453.053040,566.913269 
	C454.152893,576.801819 446.943298,585.363770 436.987579,585.965698 
	C435.848145,586.034607 434.700897,585.975098 433.468567,585.975098 
	C433.468567,590.830566 433.435791,595.441467 433.485931,600.051514 
	C433.503998,601.711975 434.193146,603.519592 433.727264,604.991394 
	C433.156097,606.795776 431.948914,609.421570 430.567047,609.739868 
	C427.405182,610.468079 427.019043,607.669250 426.943115,604.748291 
M438.019623,579.047791 
	C442.491730,578.122498 446.038757,575.603577 446.210419,571.015198 
	C446.326813,567.903992 445.217255,563.901611 443.133881,561.824097 
	C441.502747,560.197632 437.424316,560.335876 434.659546,560.867432 
	C433.517792,561.086914 432.465240,564.332947 432.266510,566.293152 
	C431.969482,569.222656 432.655457,572.237854 432.569672,575.206421 
	C432.470184,578.649109 434.140991,579.579651 438.019623,579.047791 
z"/>
<path fill="#F13F6C" opacity="1.000000" stroke="none" 
	d="
M478.845612,553.042480 
	C479.199402,552.233398 479.391968,551.771729 479.644714,551.345947 
	C483.892975,544.188660 489.624298,541.458130 495.051086,543.996765 
	C500.463074,546.528503 503.779968,556.226868 500.805267,562.361816 
	C499.998962,564.024719 497.361603,565.195435 495.330658,565.782104 
	C491.711609,566.827393 487.914215,567.255432 484.072479,567.963562 
	C484.072479,569.410217 483.717896,570.696594 484.141357,571.629883 
	C485.251404,574.076416 486.199524,577.318298 488.199097,578.374207 
	C489.439178,579.029053 492.529144,576.352905 494.690277,575.013062 
	C495.653900,574.415649 496.261292,572.965515 497.233368,572.725891 
	C498.637299,572.379761 500.546844,572.307373 501.622345,573.033691 
	C502.333130,573.513672 502.465881,575.820557 501.982971,576.928223 
	C499.935974,581.623596 491.819702,586.566650 487.349945,585.818054 
	C481.345398,584.812378 479.101959,580.168335 477.806885,574.958862 
	C476.005127,567.711304 476.182281,560.496948 478.845612,553.042480 
M491.528381,550.143982 
	C485.861267,551.300964 484.966187,555.704468 483.886963,560.876770 
	C487.935608,560.092834 491.270691,559.447083 495.852509,558.559937 
	C494.481140,555.405945 493.374603,552.861084 491.528381,550.143982 
z"/>
<path fill="#F03E6B" opacity="1.000000" stroke="none" 
	d="
M651.969727,567.816162 
	C653.098694,561.718750 653.356445,555.699951 655.596863,550.542480 
	C658.580994,543.672913 665.619995,541.390503 670.834839,544.218079 
	C676.069092,547.056213 679.163757,557.742126 675.835022,562.936584 
	C674.863586,564.452576 672.382202,565.300781 670.424500,565.820496 
	C666.769653,566.790649 662.991455,567.296021 658.999146,568.044617 
	C659.171997,569.643494 658.994812,571.073608 659.514709,572.174683 
	C660.594055,574.460571 661.595337,577.545715 663.494812,578.419434 
	C664.806152,579.022705 667.632935,576.569214 669.658997,575.286499 
	C670.760864,574.588928 671.469482,573.004944 672.599792,572.685730 
	C673.959412,572.301758 675.912354,572.376404 676.966003,573.139526 
	C677.647461,573.633057 677.767578,576.454895 677.127136,576.966431 
	C673.199341,580.103943 669.301575,583.638672 664.765137,585.545166 
	C660.870911,587.181763 657.097534,584.351440 655.466003,580.624084 
	C653.767517,576.743835 653.099670,572.412354 651.969727,567.816162 
M669.322998,552.554443 
	C666.956055,547.998291 664.159119,550.489136 662.338684,552.654846 
	C660.647278,554.667053 659.996765,557.554138 658.473267,560.991699 
	C663.040771,560.096680 666.498718,559.419006 670.167236,558.700134 
	C669.962708,556.551208 669.807312,554.918274 669.322998,552.554443 
z"/>
<path fill="#F03E6B" opacity="1.000000" stroke="none" 
	d="
M326.403687,539.579956 
	C328.851593,540.684021 331.428314,541.227783 332.834290,542.811096 
	C333.926178,544.040710 333.557281,546.567627 333.837646,548.517883 
	C331.959167,548.574036 329.682648,549.341064 328.276398,548.553772 
	C323.958710,546.136536 321.321747,546.350952 318.504059,550.249512 
	C314.052734,556.408325 313.779572,568.562866 317.948517,574.968140 
	C320.428253,578.778015 324.334900,579.431885 328.207581,576.461975 
	C330.275085,574.876465 332.309387,572.918518 334.623077,575.529236 
	C337.094482,578.317932 334.726562,580.507690 332.905670,582.358276 
	C327.333923,588.020874 317.664734,586.911377 312.282532,580.115906 
	C305.268677,571.260315 306.272095,550.872925 314.783661,543.505005 
	C317.592316,541.073792 322.227936,540.753113 326.403687,539.579956 
z"/>
<path fill="#F03E6B" opacity="1.000000" stroke="none" 
	d="
M361.211792,559.230835 
	C362.454865,557.549683 363.596130,555.529053 365.068481,555.248962 
	C366.121552,555.048706 368.223206,556.923523 368.818695,558.316345 
	C372.499756,566.926514 367.447418,580.616211 359.262695,584.869568 
	C351.613739,588.844543 343.996155,586.013855 342.103851,577.599121 
	C340.700256,571.357483 340.640930,564.748596 340.643951,558.303650 
	C340.644653,556.789673 343.169922,554.202332 344.782867,553.988586 
	C348.081238,553.551453 348.452057,556.500427 348.500336,559.167969 
	C348.587463,563.980774 348.411743,568.828674 348.945190,573.594849 
	C349.546234,578.964661 353.308960,580.271729 357.320312,576.572815 
	C362.377777,571.909302 363.276154,566.057251 361.211792,559.230835 
z"/>
<path fill="#F03D6A" opacity="1.000000" stroke="none" 
	d="
M572.778320,568.333496 
	C572.622681,565.306335 571.955505,562.632812 572.277527,560.084351 
	C572.500183,558.322327 574.088928,556.732971 575.067261,555.066467 
	C576.589294,556.061584 578.868530,556.709351 579.510071,558.108215 
	C583.624634,567.080322 577.795776,581.560242 568.822571,585.359802 
	C561.854675,588.310364 555.058960,585.978516 553.263733,578.731506 
	C551.612488,572.065186 551.550659,564.944092 551.427246,558.012024 
	C551.402710,556.631592 554.268188,555.199707 555.801025,553.791504 
	C556.906921,555.352722 558.792175,556.829529 558.972107,558.491028 
	C559.507019,563.428101 559.139099,568.460571 559.623413,573.406860 
	C559.791382,575.122742 561.275024,577.924500 562.416687,578.060791 
	C564.394409,578.296814 567.126160,577.386353 568.533508,575.961243 
	C570.420654,574.050171 571.348877,571.192078 572.778320,568.333496 
z"/>
<path fill="#F03D6A" opacity="1.000000" stroke="none" 
	d="
M697.298706,571.563782 
	C697.583313,575.009216 698.300415,578.065491 697.881226,580.957031 
	C697.621399,582.749695 695.636841,584.292236 694.426514,585.947083 
	C693.276428,584.395386 691.221619,582.893188 691.133545,581.283386 
	C690.761780,574.489990 690.976196,567.664490 690.976196,561.603638 
	C687.493286,558.827332 681.694397,562.445984 681.975037,556.914124 
	C682.068542,555.070557 686.473328,553.445679 688.907227,551.720764 
	C689.289368,552.077820 689.671570,552.434875 690.053772,552.791870 
	C690.540283,549.726440 690.627808,546.515259 691.673157,543.653931 
	C692.239441,542.103760 694.438599,541.150085 695.901184,539.927307 
	C696.788208,541.645569 698.197144,543.298218 698.423645,545.099487 
	C698.678955,547.129578 697.869568,549.293579 698.599670,550.677979 
	C700.410217,552.381714 702.220764,554.085449 704.031311,555.789185 
	C702.094421,557.362854 700.157532,558.936523 697.251282,561.297729 
	C697.251282,563.542236 697.251282,567.323669 697.298706,571.563782 
z"/>
<path fill="#F03D6A" opacity="1.000000" stroke="none" 
	d="
M532.741577,551.514404 
	C533.197144,548.471313 533.148254,545.696533 534.057556,543.282715 
	C534.596130,541.852966 536.647644,540.993164 538.018799,539.877075 
	C538.969299,541.556335 540.492004,543.162170 540.719482,544.934204 
	C540.979492,546.959534 540.087402,549.132751 539.890381,550.194092 
	C542.394104,552.295410 544.304443,553.898804 546.214844,555.502136 
	C544.242798,557.205444 542.270752,558.908691 539.347168,561.433899 
	C539.589844,566.689270 540.008301,573.447937 540.138672,580.212280 
	C540.170654,581.875122 539.517822,583.705688 538.664734,585.156250 
	C538.314331,585.752075 536.030334,586.062683 535.617737,585.606262 
	C534.495300,584.364929 533.268250,582.668762 533.209534,581.110352 
	C532.954041,574.332458 533.099854,567.539490 533.099854,560.471741 
	C530.837158,560.352478 529.425598,560.612610 528.329102,560.140625 
	C526.744263,559.458496 525.387939,558.245789 523.934082,557.259460 
	C525.320251,555.943909 526.557556,554.394775 528.139404,553.386047 
	C529.425293,552.566101 531.124390,552.393982 532.741577,551.514404 
z"/>
<path fill="#F03E6B" opacity="1.000000" stroke="none" 
	d="
M466.183594,569.536865 
	C466.781860,573.884460 465.789734,578.594604 471.717377,579.591064 
	C472.318970,579.692200 473.216400,582.472778 472.750122,583.378845 
	C472.148438,584.548096 470.367065,585.648926 468.995209,585.784851 
	C464.422211,586.238098 459.570587,582.313110 459.297150,576.957214 
	C458.671967,564.709778 458.630798,552.425476 458.700989,540.158203 
	C458.710114,538.565735 460.776245,536.984924 461.889526,535.398743 
	C463.320343,537.010437 465.827118,538.525330 465.982452,540.251770 
	C466.470001,545.669983 466.039124,551.167664 466.028442,556.634705 
	C466.020325,560.783081 466.110687,564.931580 466.183594,569.536865 
z"/>
<path fill="#2E2741" opacity="1.000000" stroke="none" 
	d="
M641.466736,412.250916 
	C637.000854,417.476318 631.754333,418.612152 627.335388,415.577118 
	C623.117798,412.680420 621.981750,407.045624 624.666382,402.338928 
	C627.371582,397.596375 632.600281,395.827087 637.440918,398.016205 
	C642.542908,400.323486 644.118408,405.482391 641.466736,412.250916 
z"/>
<path fill="#F9A92F" opacity="1.000000" stroke="none" 
	d="
M188.814911,510.899658 
	C183.335602,510.563507 177.825806,510.458771 172.396362,509.743896 
	C170.856384,509.541107 169.029572,507.841553 168.220734,506.348297 
	C162.277084,495.375366 156.605759,484.255432 150.755997,473.230957 
	C144.583969,461.599091 133.330933,460.654785 125.200256,471.081085 
	C117.619728,480.801941 110.208466,490.656403 102.509232,500.281281 
	C101.379807,501.693207 99.011375,503.033325 97.311455,502.924103 
	C83.711357,502.050415 70.134193,500.819824 55.946438,499.648651 
	C64.348999,403.098511 72.728142,306.817444 81.150391,210.041138 
	C90.690224,210.823578 99.921844,211.537292 109.145157,212.345596 
	C134.191956,214.540573 159.235901,216.768433 184.279617,218.998459 
	C193.897079,219.854858 203.510880,220.752457 213.476685,222.201385 
	C212.801544,234.528091 211.786819,246.285629 210.748444,258.041107 
	C208.189102,287.015411 205.586166,315.985931 203.063065,344.963379 
	C200.914780,369.636047 198.868347,394.317596 196.749786,418.992889 
	C194.119370,449.629730 191.461136,480.264191 188.814911,510.899658 
z"/>
<path fill="#FEFDFD" opacity="1.000000" stroke="none" 
	d="
M189.241089,511.012665 
	C191.461136,480.264191 194.119370,449.629730 196.749786,418.992889 
	C198.868347,394.317596 200.914780,369.636047 203.063065,344.963379 
	C205.586166,315.985931 208.189102,287.015411 210.748444,258.041107 
	C211.786819,246.285629 212.801544,234.528091 213.855896,222.350571 
	C222.158279,222.488235 230.431808,223.046814 239.265503,223.643219 
	C230.854416,320.311432 222.488922,416.455627 214.062927,513.295349 
	C205.786621,512.559326 197.726944,511.842499 189.241089,511.012665 
z"/>
<path fill="#EF3766" opacity="1.000000" stroke="none" 
	d="
M216.163269,193.854797 
	C203.075455,192.809357 189.982498,191.823822 176.901062,190.703842 
	C159.178238,189.186478 141.464401,187.564438 123.746414,185.990463 
	C110.689606,184.830551 97.632355,183.675659 83.893509,182.458099 
	C84.373360,175.832703 84.799438,169.442596 85.315346,163.059753 
	C85.542488,160.249557 85.726753,157.405396 86.319489,154.660660 
	C88.510284,144.515900 98.054733,137.523117 108.405800,138.408859 
	C138.019150,140.942856 167.630859,143.496170 197.238892,146.091217 
	C202.529190,146.554901 207.798782,147.254517 213.558044,148.311157 
	C217.681610,155.227005 218.775070,162.212570 218.223297,169.490402 
	C217.607162,177.617203 216.855789,185.733780 216.163269,193.854797 
z"/>
<path fill="#F8A82F" opacity="1.000000" stroke="none" 
	d="
M148.026810,577.055237 
	C128.631882,575.452271 109.234772,573.874329 89.847687,572.181641 
	C88.727531,572.083862 87.170128,571.325073 86.690201,570.413696 
	C79.419189,556.606079 72.294456,542.721497 64.815674,528.235535 
	C77.681389,529.350281 89.893654,530.202820 102.052422,531.541321 
	C109.006828,532.306824 114.393318,530.408447 118.621140,524.770813 
	C123.891365,517.743225 129.370346,510.872162 135.251389,503.299713 
	C139.601883,511.455078 143.885040,518.879700 147.577499,526.587219 
	C150.840591,533.398560 156.106689,536.442383 163.340973,536.895813 
	C167.658096,537.166382 171.964722,537.604614 176.583252,538.374268 
	C167.269211,551.539185 157.648010,564.297241 148.026810,577.055237 
z"/>
<path fill="#FDFCFC" opacity="1.000000" stroke="none" 
	d="
M216.569778,193.937988 
	C216.855789,185.733780 217.607162,177.617203 218.223297,169.490402 
	C218.775070,162.212570 217.681610,155.227005 213.956070,148.417328 
	C218.510269,148.394943 223.213196,148.352020 227.768661,149.150406 
	C236.716034,150.718506 243.814438,159.062439 243.729675,168.848358 
	C243.652390,177.769943 242.321396,186.680664 241.483734,196.274933 
	C233.099258,195.503876 225.037781,194.762527 216.569778,193.937988 
z"/>
<path fill="#FCFCFB" opacity="1.000000" stroke="none" 
	d="
M148.392487,577.223328 
	C157.648010,564.297241 167.269211,551.539185 177.013733,538.466125 
	C184.583069,538.679749 192.029068,539.208496 200.207825,539.789185 
	C199.093613,541.481812 198.404617,542.671021 197.580750,543.758057 
	C189.451096,554.484253 181.220154,565.135193 173.214096,575.952576 
	C171.427155,578.367004 169.649216,579.433167 166.622101,579.063843 
	C160.687759,578.339966 154.715012,577.930847 148.392487,577.223328 
z"/>
<path fill="#FCFCFB" opacity="1.000000" stroke="none" 
	d="
M127.636902,603.570251 
	C135.022995,604.110107 142.409088,604.649963 150.814499,605.264343 
	C141.384140,617.695190 132.510422,629.392334 123.248444,641.601257 
	C119.933235,635.081604 116.862961,629.043701 113.889778,622.368286 
	C118.536888,615.677368 123.086899,609.623779 127.636902,603.570251 
z"/>
<path fill="#F4A733" opacity="1.000000" stroke="none" 
	d="
M127.161217,603.406494 
	C123.086899,609.623779 118.536888,615.677368 113.758995,622.030579 
	C109.924057,615.486572 106.317009,608.642944 102.374290,601.162415 
	C111.140640,601.912537 118.913086,602.577637 127.161217,603.406494 
z"/>
<path fill="#FCFCFD" opacity="1.000000" stroke="none" 
	d="
M837.969849,464.080811 
	C838.286926,471.738037 834.791870,477.428589 829.028992,480.749512 
	C821.632690,485.011688 813.547852,488.141602 805.589783,491.336182 
	C802.305969,492.654358 799.437805,490.949249 799.170044,487.258026 
	C798.124817,472.850037 797.261597,458.426361 796.629333,443.995422 
	C796.575562,442.767914 798.595459,440.502167 799.882690,440.316223 
	C808.606445,439.056427 817.190125,439.843048 825.040527,444.202545 
	C832.621582,448.412415 837.322266,454.733093 837.969849,464.080811 
z"/>
<path fill="#FBFBFC" opacity="1.000000" stroke="none" 
	d="
M433.899139,459.137115 
	C433.175751,467.012390 432.399689,474.438751 431.803345,481.879517 
	C431.564362,484.860962 430.732697,486.560059 427.297882,487.120026 
	C422.436401,487.912598 417.766663,490.261597 412.917206,490.619080 
	C409.463654,490.873657 404.547333,489.967224 402.730530,487.655823 
	C401.350922,485.900574 403.092407,480.717621 404.712128,477.751801 
	C410.990448,466.255829 421.898346,460.282654 433.918579,454.536377 
	C433.918579,456.271973 433.918579,457.482971 433.899139,459.137115 
z"/>
<path fill="#FCFCFD" opacity="1.000000" stroke="none" 
	d="
M426.768250,305.800476 
	C433.459015,299.460907 441.396271,298.164062 449.468933,301.906128 
	C450.340057,302.309967 451.682037,302.873627 451.800293,303.541260 
	C452.804047,309.207916 457.206024,313.961426 455.193146,320.546051 
	C453.128113,327.301178 451.186035,333.906677 445.923950,338.909271 
	C441.118042,343.478149 435.516602,345.449677 429.046692,342.956482 
	C422.928986,340.599030 420.348206,335.619629 419.767303,329.391388 
	C418.960266,320.738617 421.396088,313.013428 426.768250,305.800476 
z"/>
<path fill="#FCFCFD" opacity="1.000000" stroke="none" 
	d="
M912.586609,449.360138 
	C919.491760,461.645325 917.790833,475.958313 908.568359,485.280457 
	C903.808472,490.091858 898.224426,492.496521 891.439392,490.077240 
	C884.791992,487.707092 882.254150,482.414917 881.709656,475.819366 
	C881.054932,467.890045 883.195435,460.656097 887.682739,454.226685 
	C893.055908,446.528015 900.725098,445.081482 912.586609,449.360138 
z"/>
<path fill="#FFF9FA" opacity="1.000000" stroke="none" 
	d="
M720.729614,578.772705 
	C714.438354,578.292664 713.165344,576.231384 716.849121,571.820435 
	C719.913574,568.151123 724.057861,565.383667 728.229309,561.780090 
	C730.726624,573.267578 729.169678,576.525696 720.729614,578.772705 
z"/>
<path fill="#FFF9FA" opacity="1.000000" stroke="none" 
	d="
M437.596252,579.087158 
	C434.140991,579.579651 432.470184,578.649109 432.569672,575.206421 
	C432.655457,572.237854 431.969482,569.222656 432.266510,566.293152 
	C432.465240,564.332947 433.517792,561.086914 434.659546,560.867432 
	C437.424316,560.335876 441.502747,560.197632 443.133881,561.824097 
	C445.217255,563.901611 446.326813,567.903992 446.210419,571.015198 
	C446.038757,575.603577 442.491730,578.122498 437.596252,579.087158 
z"/>
<path fill="#FEF3F6" opacity="1.000000" stroke="none" 
	d="
M491.898254,550.230103 
	C493.374603,552.861084 494.481140,555.405945 495.852509,558.559937 
	C491.270691,559.447083 487.935608,560.092834 483.886963,560.876770 
	C484.966187,555.704468 485.861267,551.300964 491.898254,550.230103 
z"/>
<path fill="#FEF3F6" opacity="1.000000" stroke="none" 
	d="
M669.487427,552.919922 
	C669.807312,554.918274 669.962708,556.551208 670.167236,558.700134 
	C666.498718,559.419006 663.040771,560.096680 658.473267,560.991699 
	C659.996765,557.554138 660.647278,554.667053 662.338684,552.654846 
	C664.159119,550.489136 666.956055,547.998291 669.487427,552.919922 
z"/>
</svg>